<svg xmlns="http://www.w3.org/2000/svg" width="1em" height="1em" viewBox="0 0 256 256"><g fill="none"><g clip-path="url(#skillIconsPnpmLight0)"><path fill="#f4f2ed" d="M196 0H60C26.863 0 0 26.863 0 60v136c0 33.137 26.863 60 60 60h136c33.137 0 60-26.863 60-60V60c0-33.137-26.863-60-60-60"/><path fill="#f9ad00" d="M40 41h55v55H40zm60 0h55v55h-55zm60 0h55v55h-55zm0 60h55v55h-55z"/><path fill="#4e4e4e" d="M160 161h55v55h-55zm-60 0h55v55h-55zm-60 0h55v55H40z"/><path fill="#f4f2ed" d="M40 101h55v55H40z"/><path fill="#4e4e4e" d="M100 101h55v55h-55z"/></g><defs><clipPath id="skillIconsPnpmLight0"><path fill="#fff" d="M0 0h256v256H0z"/></clipPath></defs></g></svg>