<?xml version="1.0" standalone="no"?><!DOCTYPE svg PUBLIC "-//W3C//DTD SVG 1.1//EN" "http://www.w3.org/Graphics/SVG/1.1/DTD/svg11.dtd"><svg t="1744906844875" class="icon" viewBox="0 0 1024 1024" version="1.1" xmlns="http://www.w3.org/2000/svg" p-id="4099" width="48" height="48" xmlns:xlink="http://www.w3.org/1999/xlink"><path d="M512 635.586207C284.283586 635.586207 105.931034 496.004414 105.931034 317.793103 105.931034 139.581793 284.283586 0 512 0c227.698759 0 406.068966 139.581793 406.068966 317.793103 0 178.21131-178.370207 317.793103-406.068966 317.793104" fill="#F0C419" p-id="4100"></path><path d="M512 512c-147.791448 0-268.040828-90.571034-268.040828-193.57131 0-103.017931 120.249379-186.809379 268.040828-186.80938s268.023172 83.791448 268.023172 186.80938C780.023172 421.428966 659.791448 512 512 512" fill="#F18D46" p-id="4101"></path><path d="M441.37931 353.103448a17.655172 17.655172 0 0 1-17.655172-17.655172v-70.62069a17.655172 17.655172 0 1 1 35.310345 0v70.62069a17.655172 17.655172 0 0 1-17.655173 17.655172M582.62069 353.103448a17.655172 17.655172 0 0 1-17.655173-17.655172v-70.62069a17.655172 17.655172 0 1 1 35.310345 0v70.62069a17.655172 17.655172 0 0 1-17.655172 17.655172" fill="#FFFFFF" p-id="4102"></path><path d="M300.137931 776.827586a88.275862 88.275862 0 0 1 176.551724 0v88.275862h-88.275862a88.275862 88.275862 0 0 1-88.275862-88.275862M723.862069 865.103448a88.275862 88.275862 0 0 0-176.551724 0v88.275862h88.275862a88.275862 88.275862 0 0 0 88.275862-88.275862" fill="#4C8056" p-id="4103"></path><path d="M512 635.586207c-11.917241 0-23.675586-0.47669-35.310345-1.218207V1024h70.62069V634.368c-11.634759 0.741517-23.393103 1.218207-35.310345 1.218207" fill="#7ED09E" p-id="4104"></path></svg>