<?xml version="1.0" standalone="no"?><!DOCTYPE svg PUBLIC "-//W3C//DTD SVG 1.1//EN" "http://www.w3.org/Graphics/SVG/1.1/DTD/svg11.dtd"><svg t="1744905328511" class="icon" viewBox="0 0 1024 1024" version="1.1" xmlns="http://www.w3.org/2000/svg" p-id="5135" xmlns:xlink="http://www.w3.org/1999/xlink" width="200" height="200"><path d="M132.416 880.832a381.336 81.488 0 1 0 762.672 0 381.336 81.488 0 1 0-762.672 0Z" fill="#B8CBCD" p-id="5136"></path><path d="M178.216 645.192c-38.632-55.696-61.088-121.656-61.088-192.44 0-199.12 176.976-386.592 395.28-386.592 218.304 0 395.28 187.472 395.28 386.592 0 71.448-22.88 137.992-62.2 194.016 0 0-15.992-94.112-337.432-94.112-312.744 0-329.84 92.536-329.84 92.536z" fill="#FFBAB0" p-id="5137"></path><path d="M178.216 645.192c-38.632-55.696-61.088-121.656-61.088-192.44 0-199.12 176.976-386.592 395.28-386.592 218.304 0 395.28 187.472 395.28 386.592 0 71.448-22.88 137.992-62.2 194.016 0 0-15.992-94.112-337.432-94.112-312.744 0-329.84 92.536-329.84 92.536z" fill="#FFBAB0" p-id="5138"></path><path d="M845.472 662.768a16 16 0 0 1-13.08-25.192c38.792-55.28 59.296-119.192 59.296-184.824 0-197.416-177.232-370.592-379.28-370.592s-379.28 173.176-379.28 370.592c0 65 20.136 128.392 58.24 183.328a16 16 0 0 1-26.296 18.232c-41.832-60.312-63.944-130.008-63.944-201.56 0-214.464 192.184-402.592 411.28-402.592s411.28 188.128 411.28 402.592c0 72.248-22.512 142.512-65.104 203.208a15.968 15.968 0 0 1-13.112 6.808z" fill="#783741" p-id="5139"></path><path d="M847.6 659.872a16 16 0 0 1-16-16c0-29.944-130.776-75.216-327.88-75.216-192.376 0-310.504 43.808-310.504 75.216a16 16 0 0 1-32 0c0-73.664 177.544-107.216 342.504-107.216 178.84 0 359.88 36.832 359.88 107.216a16 16 0 0 1-16 16z" fill="#783741" p-id="5140"></path><path d="M177.936 643.872c0-50.376 139.808-91.216 326.504-91.216s343.88 40.84 343.88 91.216l-37.784 156.376c0 44.696-139.472 80.936-305.12 80.936-165.656 0-289.704-36.24-289.704-80.936l-37.776-156.376z" fill="#F6E89A" p-id="5141"></path><path d="M505.424 897.184c-145.656 0-302.304-29.688-305.648-94.8l-37.392-154.752a15.696 15.696 0 0 1-0.448-3.76c0-73.664 177.544-107.216 342.504-107.216 178.84 0 359.88 36.832 359.88 107.216 0 1.264-0.152 2.528-0.448 3.76L826.48 802.4c-3.824 69.496-193.28 94.784-321.056 94.784zM194.032 642.344l37.248 154.152c0.304 1.232 0.448 2.496 0.448 3.76 0 23.304 91.464 64.936 273.704 64.936 187.072 0 289.12-42.896 289.12-64.936 0-1.264 0.152-2.528 0.448-3.76l37.232-154.096c-4.176-29.928-133.88-73.736-327.776-73.736-189.288-0.008-306.696 42.408-310.424 73.68z" fill="#783741" p-id="5142"></path><path d="M505.424 905.184c-153.744 0-308.856-31.456-313.592-101.616l-35.848-148.36c-41.144-60.808-62.864-130.72-62.864-202.464 0-218.728 195.928-410.592 419.28-410.592s419.28 191.864 419.28 410.592c0 70.248-20.912 138.888-60.544 198.888l-36.72 151.968c-5.712 80.24-216.704 101.584-328.992 101.584zM197.296 630.592c1.992 2.6 3.488 5.632 4.288 8.968l37.464 155.056c0.448 1.848 0.672 3.736 0.672 5.64 0 13.72 79.944 56.936 265.704 56.936 170.632 0 275.248-37.952 281.176-57.448 0-1.904 0.168-3.28 0.616-5.128l37.04-153.312a23.984 23.984 0 0 1 4.128-12.096c36.176-53.072 55.304-114.096 55.304-176.464 0-193.16-173.496-362.592-371.28-362.592s-371.28 169.432-371.28 362.592c0 63.008 19.424 124.48 56.168 177.848z" fill="#783741" p-id="5143"></path><path d="M848.328 685.936a16 16 0 0 1-16-16c0-29.944-130.776-75.216-327.88-75.216-192.376 0-310.504 43.808-310.504 75.216a16 16 0 0 1-32 0c0-73.672 177.544-107.216 342.504-107.216 178.84 0 359.88 36.832 359.88 107.216a16 16 0 0 1-16 16z" fill="#783741" p-id="5144"></path><path d="M516.752 309.408m-166.44 0a166.44 166.44 0 1 0 332.88 0 166.44 166.44 0 1 0-332.88 0Z" fill="#FFFFFF" p-id="5145"></path><path d="M516.744 491.84c-100.592 0-182.432-81.84-182.432-182.432 0-100.6 81.84-182.44 182.432-182.44 100.6 0 182.44 81.84 182.44 182.44 0.008 100.592-81.84 182.432-182.44 182.432z m0-332.864c-82.952 0-150.432 67.48-150.432 150.44 0 82.952 67.48 150.432 150.432 150.432 82.952 0 150.44-67.488 150.44-150.432 0.008-82.96-67.48-150.44-150.44-150.44z" fill="#783741" p-id="5146"></path><path d="M828.328 226.576c-31.496 32.784-50.952 77.216-50.952 126.264 0 79.656 51.128 147.2 122.296 172.08a330.664 330.664 0 0 0 8.016-72.168c0-81.336-29.552-160.712-79.36-226.176z" fill="#FFFFFF" p-id="5147"></path><path d="M899.672 540.928c-1.784 0-3.56-0.296-5.28-0.896-79.56-27.816-133.016-103.04-133.016-187.184 0-51.376 19.68-100.152 55.408-137.352a15.864 15.864 0 0 1 12.456-4.888c4.672 0.264 8.984 2.56 11.816 6.288 53.288 70.024 82.632 153.792 82.632 235.864 0 25.256-2.832 50.712-8.4 75.664a16 16 0 0 1-15.616 12.504z m-72.432-288.52a165.208 165.208 0 0 0-33.864 100.44c0 64.28 37.216 122.352 94.288 149.824 2.672-16.576 4.024-33.296 4.024-49.912 0-68.944-22.76-139.384-64.448-200.352z" fill="#783741" p-id="5148"></path><path d="M125.736 527.648c75.384-22.416 130.392-92.144 130.392-174.808 0-51.512-21.44-97.96-55.784-131.136-52.096 66.384-83.216 147.664-83.216 231.04 0 25.704 3 50.744 8.608 74.904z" fill="#FFFFFF" p-id="5149"></path><path d="M125.736 543.648a16 16 0 0 1-15.584-12.384 347.448 347.448 0 0 1-9.024-78.512c0-84.168 30.768-169.736 86.632-240.92 2.8-3.56 6.968-5.776 11.488-6.08a15.728 15.728 0 0 1 12.216 4.456c39.12 37.792 60.664 88.448 60.664 142.64 0 87.12-58.32 165.312-141.824 190.144-1.504 0.44-3.04 0.656-4.568 0.656z m75.968-297.024c-44.336 62.368-68.576 134.896-68.576 206.136 0 17.912 1.552 35.888 4.624 53.64 61.056-25.576 102.376-86.4 102.376-153.552 0-39.312-13.528-76.408-38.424-106.224zM436.408 754.672a24 24 0 1 1-48 0v-96a24 24 0 1 1 48 0v96zM628.408 754.672a24 24 0 1 1-48 0v-96a24 24 0 1 1 48 0v96z" fill="#783741" p-id="5150"></path></svg>