<?xml version="1.0" standalone="no"?><!DOCTYPE svg PUBLIC "-//W3C//DTD SVG 1.1//EN" "http://www.w3.org/Graphics/SVG/1.1/DTD/svg11.dtd"><svg t="1749741653129" class="icon" viewBox="0 0 1024 1024" version="1.1" xmlns="http://www.w3.org/2000/svg" p-id="72504" xmlns:xlink="http://www.w3.org/1999/xlink" width="48" height="48"><path d="M936.492 223.274c-116.624-116.636-305.746-116.636-422.382 0L31.26 706.092c-41.656 41.654-41.656 109.214 0 150.872 41.67 41.654 109.202 41.654 150.872 0l482.832-482.834c33.312-33.328 87.344-33.328 120.688 0 33.308 33.328 33.308 87.358 0 120.7l-15.094 15.078c-41.656 41.656-41.656 109.186 0 150.84 41.652 41.656 109.184 41.688 150.872 0l15.062-15.062c116.652-116.652 116.652-305.774 0-422.412z" fill="#ED5564" p-id="72505"></path><path d="M149.368 588v291.306a106.624 106.624 0 0 0 32.764-22.344l148.262-148.278V406.972L149.368 588zM695.122 354.662V137.322c-66.094 6.672-130.402 35.312-181.012 85.952h-0.016v301.728l150.872-150.872a84.808 84.808 0 0 1 30.156-19.468zM785.652 494.83l-15.094 15.078c-41.656 41.656-41.656 109.186 0 150.84 41.652 41.656 109.184 41.688 150.872 0l15.062-15.062c50.652-50.654 79.278-114.934 85.964-181.042h-217.34a85.26 85.26 0 0 1-19.464 30.186z" fill="#E6E9ED" p-id="72506"></path></svg>